<?xml version="1.0" encoding="UTF-8"?>
<svg version="1.1" xmlns="http://www.w3.org/2000/svg" width="512" height="512">
<path d="M0 0 C3.53237454 1.44156095 6.13140147 3.51250792 9 6 C10.21623047 6.98033203 10.21623047 6.98033203 11.45703125 7.98046875 C28.6872159 22.51099313 38.25376417 43.37164229 40.82348633 65.56469727 C41.23642234 71.2618435 41.14191474 76.97877358 41.125 82.6875 C41.12886719 83.97333984 41.13273437 85.25917969 41.13671875 86.58398438 C41.1294268 93.79936989 40.84556543 100.91487449 40.23144531 108.10327148 C38.6423516 127.99208675 41.33314799 146.95412322 47 166 C47.47953125 167.72476563 47.47953125 167.72476563 47.96875 169.484375 C48.3090625 170.31453125 48.649375 171.1446875 49 172 C49.99 172.33 50.98 172.66 52 173 C52.12955078 171.16501953 52.12955078 171.16501953 52.26171875 169.29296875 C53.67660811 151.53752923 57.67877743 135.26612029 65 119 C65.45463623 117.96818604 65.45463623 117.96818604 65.91845703 116.91552734 C69.94330321 107.88980467 73.7206471 99.63967645 83 95 C89.44601568 94.49821435 95.58486659 94.03770726 101 98 C106.78793198 104.05101979 108.17151937 109.33499567 109.3125 117.4375 C112.16157618 135.72153891 119.70788632 151.19591707 132 165 C133.30324219 166.46759766 133.30324219 166.46759766 134.6328125 167.96484375 C139.10359688 172.937107 143.70248144 177.71416288 148.5 182.375 C179.82931602 213.48085443 185.90019562 250.58152877 187 293 C187.32105713 292.17580566 187.64211426 291.35161133 187.97290039 290.50244141 C188.62246704 288.88088135 188.62246704 288.88088135 189.28515625 287.2265625 C189.92142944 285.619021 189.92142944 285.619021 190.57055664 283.97900391 C193.10372324 278.69980685 196.71777437 276.16647088 201.8125 273.5625 C207.68596035 272.526007 212.90581533 273.01217704 218.3125 275.5625 C224.95344081 281.58567888 227.31231016 289.15559019 229.5625 297.625 C230.00746826 299.25586548 230.00746826 299.25586548 230.46142578 300.91967773 C234.60741064 316.52655956 238.10372444 332.85382928 238.203125 349.05859375 C238.20882507 349.80601334 238.21452515 350.55343292 238.22039795 351.32350159 C238.2297838 352.89916601 238.23635616 354.4748495 238.24023438 356.05053711 C238.24984904 358.40060082 238.28089534 360.74975341 238.3125 363.09960938 C238.40927702 376.80156261 236.84984708 390.19653182 232.25 403.1875 C231.86485229 404.29955811 231.86485229 404.29955811 231.47192383 405.43408203 C227.13962308 417.56452413 221.16683433 428.00562232 213 438 C212.38640625 438.77859375 211.7728125 439.5571875 211.140625 440.359375 C195.03566824 459.76791264 171.65269449 470.1716943 147 473 C147.04640625 473.66644531 147.0928125 474.33289063 147.140625 475.01953125 C147.55670327 485.64438714 144.70039761 493.90218582 137.8515625 502.0625 C130.98407133 509.24873548 123.45033895 512.10764465 113.578125 512.43359375 C111.50875995 512.45612716 109.44103018 512.45878961 107.37158203 512.44604492 C105.24025079 512.43746073 103.11154124 512.46648449 100.98046875 512.49804688 C99.6171883 512.49965749 98.25390313 512.49908403 96.890625 512.49609375 C95.66375977 512.49794678 94.43689453 512.4997998 93.17285156 512.50170898 C89.42898893 511.90970855 88.20953141 511.03621515 86 508 C86 507.01 86 506.02 86 505 C83.72854654 505.03300659 81.45759874 505.10240005 79.1875 505.1875 C77.92292969 505.22230469 76.65835937 505.25710938 75.35546875 505.29296875 C71.8360451 505.65189582 71.8360451 505.65189582 70.11328125 508.48828125 C69.56220703 509.73158203 69.56220703 509.73158203 69 511 C67.10598617 512.89401383 63.77932954 512.13880384 61.26539612 512.14717102 C60.55289214 512.15084771 59.84038815 512.1545244 59.10629314 512.1583125 C56.70049364 512.16939252 54.29473727 512.17320055 51.88891602 512.17700195 C50.17102418 512.18326368 48.45313372 512.18991021 46.73524475 512.19691467 C42.0529684 512.21435913 37.37070229 512.2248872 32.68840146 512.2331202 C29.76242408 512.23826627 26.8364499 512.24434238 23.91047478 512.25063133 C14.7545261 512.2696986 5.59858554 512.28392278 -3.55737919 512.2922433 C-14.12262866 512.30200267 -24.68766789 512.32828172 -35.25284332 512.36874419 C-43.41855909 512.39894173 -51.58421477 512.41371589 -59.74998528 512.41702431 C-64.62634566 512.41937194 -69.50248186 512.42829396 -74.37878227 512.45348549 C-78.9728179 512.47683285 -83.56648285 512.48097272 -88.16056252 512.47072411 C-89.84149791 512.47023014 -91.52245194 512.4765092 -93.20333099 512.49028015 C-105.96672924 512.58894285 -116.32107403 511.03366424 -126 502 C-134.08080248 493.1679211 -135.48141438 484.73076427 -136 473 C-136.59683594 472.98582031 -137.19367188 472.97164063 -137.80859375 472.95703125 C-157.31600329 471.88455851 -175.9983043 463.22533211 -191 451 C-191.83917969 450.32453125 -192.67835938 449.6490625 -193.54296875 448.953125 C-212.13407082 433.15789409 -222.97507793 410.02636438 -226 386 C-226.32282863 380.76810954 -226.39055342 375.55182497 -226.375 370.3125 C-226.37412384 369.588349 -226.37324768 368.864198 -226.37234497 368.11810303 C-226.2558149 338.7323639 -217.9569822 311.01412531 -209.14379883 283.18457031 C-206.31598004 274.20187036 -203.84546565 265.23831317 -202 256 C-201.71382812 254.66388672 -201.71382812 254.66388672 -201.421875 253.30078125 C-200.77594863 248.24700552 -200.76596561 243.21536786 -200.75 238.125 C-200.74532715 237.01326416 -200.7406543 235.90152832 -200.73583984 234.75610352 C-200.77796191 228.29691869 -201.21871542 222.24076461 -202.625 215.9375 C-204.0925355 209.19666707 -204.62633586 205.08910519 -200.765625 199.078125 C-197.48156971 194.80532188 -194.25305527 192.53968861 -189 191 C-176.84268041 189.60489775 -166.43333242 197.12007182 -157 204 C-149.33594435 210.11414202 -142.06202323 217.28199608 -136.37109375 225.29296875 C-135.91863281 225.85628906 -135.46617187 226.41960937 -135 227 C-134.34 227 -133.68 227 -133 227 C-131.60386221 221.63756169 -130.42870133 216.26614577 -129.35229492 210.83105469 C-123.04759745 179.23345456 -113.17195656 146.05914288 -92 121 C-90.83791016 119.56140625 -90.83791016 119.56140625 -89.65234375 118.09375 C-83.89668997 111.2523051 -83.89668997 111.2523051 -80.04296875 110.16796875 C-77 110 -77 110 -74.39453125 110.64453125 C-71.92204155 111.26608204 -71.92204155 111.26608204 -69.76171875 109.69921875 C-65.50823986 105.8315724 -65.50823986 105.8315724 -63.8046875 100.58984375 C-63.93230469 99.36974609 -63.93230469 99.36974609 -64.0625 98.125 C-64.37356679 94.63354344 -64.23982634 93.36299507 -62.2734375 90.38671875 C-59.93727086 87.81224749 -57.5300969 85.38366042 -55 83 C-38.03316357 66.76765866 -26.10850346 47.95508271 -25.4375 24.0625 C-25.42984619 23.06677979 -25.42219238 22.07105957 -25.41430664 21.04516602 C-25.31837143 14.6402709 -24.82915124 10.00557938 -20.24609375 5.13671875 C-19.35083984 4.41935547 -19.35083984 4.41935547 -18.4375 3.6875 C-17.83808594 3.19636719 -17.23867187 2.70523437 -16.62109375 2.19921875 C-11.79203397 -1.37312186 -5.72877201 -0.67475144 0 0 Z " fill="#020101" transform="translate(250,0)"/>
<path d="M0 0 C9.16964214 1.31452912 15.42160873 8.9534379 20.86328125 15.93359375 C31.78140116 31.60219362 35.19768099 49.60100901 35.125 68.4375 C35.12886719 69.43587891 35.13273438 70.43425781 35.13671875 71.46289062 C35.13037854 76.28462021 34.91451639 80.88073904 34.23144531 85.66040039 C33.6464013 91.5744054 33.80332826 97.56078706 33.8125 103.5 C33.81340637 104.57580322 33.81340637 104.57580322 33.81433105 105.67333984 C33.85098516 121.65453141 35.51017805 136.63320991 40 152 C40.18965332 152.65371582 40.37930664 153.30743164 40.57470703 153.98095703 C43.52931779 164.11306259 43.52931779 164.11306259 51 171 C55.48588385 173.24294193 61.14487583 172.58420302 66 172 C71.05602052 169.88552228 73.38430999 167.34927811 75.65234375 162.37890625 C77.25438439 157.77673804 77.61551571 153.2719648 77.9375 148.4375 C79.39847491 131.39279272 84.44580069 109.38180725 96 96 C98.05078125 95.125 98.05078125 95.125 100 95 C102.72288179 97.72288179 102.36622868 99.49479532 102.6875 103.3125 C106.05880306 133.80901303 124.34767204 156.79686254 145.5625 177.4375 C169.68006884 201.41606268 179.86938373 231.34987204 180.23828125 265.10546875 C180.25159737 266.22844109 180.25159737 266.22844109 180.2651825 267.37409973 C180.29467624 270.42541982 180.31465233 273.47611894 180.30541992 276.52758789 C180.3028 278.80429664 180.33083194 281.0790264 180.36328125 283.35546875 C180.34797112 284.37739571 180.34797112 284.37739571 180.33235168 285.41996765 C180.44559966 290.96228636 182.23120601 293.23191784 186 297 C188.55126768 298.27563384 190.46322086 298.20373295 193.3125 298.25 C194.25738281 298.27578125 195.20226562 298.3015625 196.17578125 298.328125 C199.65418996 297.92399453 201.2690472 297.20696511 204 295 C205.54744808 292.55979341 206.85906588 290.26189962 208.125 287.6875 C208.45886719 287.03587891 208.79273438 286.38425781 209.13671875 285.71289062 C210.10542198 283.81537195 211.05508378 281.9094553 212 280 C212.57492187 278.85144531 213.14984375 277.70289063 213.7421875 276.51953125 C214.15726562 275.68808594 214.57234375 274.85664063 215 274 C216.65 274.33 218.3 274.66 220 275 C221.21892268 279.36114551 222.43193216 283.72369566 223.6328125 288.08984375 C224.42729035 290.97024146 225.2514833 293.83095006 226.1171875 296.69140625 C233.22792658 320.91752894 235.50158703 349.44137369 229 374 C228.83902832 374.64018066 228.67805664 375.28036133 228.51220703 375.93994141 C224.17759375 392.87449686 216.42968391 406.76095541 204 419 C203.40703125 419.66257812 202.8140625 420.32515625 202.203125 421.0078125 C192.45236436 431.77226608 176.97268887 439.13184924 162.75170898 441.07666016 C161.488181 441.25121735 160.22465302 441.42577454 158.9228363 441.60562134 C157.47603233 441.80083878 157.47603233 441.80083878 156 442 C155.99635437 441.08704163 155.99270874 440.17408325 155.98895264 439.23345947 C155.95091513 430.58389141 155.89388519 421.93469439 155.81609726 413.28538895 C155.77677024 408.83982221 155.74450996 404.39444917 155.72900391 399.94873047 C155.71373912 395.64962214 155.67912245 391.35104688 155.63169098 387.05217743 C155.6169776 385.42098401 155.60896482 383.78971445 155.60811615 382.1584549 C155.59555968 370.11322001 154.76984507 358.42897733 146.7578125 348.74609375 C138.18225769 340.22770931 128.20395192 337.6146466 116.4375 337.3125 C115.52419922 337.27833984 114.61089844 337.24417969 113.66992188 337.20898438 C111.44673771 337.12750642 109.22389803 337.05804262 107 337 C106.96261719 335.71609375 106.92523438 334.4321875 106.88671875 333.109375 C105.68562386 298.4265193 98.00824811 265.30813028 72.515625 240.1796875 C67.88924858 236.17111911 64.56115584 235.5503616 58.5390625 235.68359375 C54.45691965 236.19229155 52.2912575 237.51476475 49 240 C46.55811178 243.48162164 45.47667153 246.54527939 44.625 250.6875 C42.09529546 261.3568238 37.32020323 270.74548889 27.9375 276.8125 C21.37406201 280.74519393 15.6163405 282.09362838 8 281 C-0.01537188 278.31504784 -5.9902259 274.52665238 -10 267 C-14.3624984 258.00675897 -15.16833994 249.63150597 -15.125 239.75 C-15.12886719 238.8528125 -15.13273438 237.955625 -15.13671875 237.03125 C-15.13478516 235.73960937 -15.13478516 235.73960937 -15.1328125 234.421875 C-15.13168457 233.64424805 -15.13055664 232.86662109 -15.12939453 232.06542969 C-15 230 -15 230 -14 227 C-13.85408434 224.69060412 -13.77913516 222.37631759 -13.75 220.0625 C-13.72421875 218.83660156 -13.6984375 217.61070312 -13.671875 216.34765625 C-14.0214173 212.78149254 -14.6906846 211.61924984 -17 209 C-17 208.34 -17 207.68 -17 207 C-21.35738679 205.23349184 -25.08314627 203.82553029 -29.8125 203.6875 C-30.64394531 203.65011719 -31.47539062 203.61273438 -32.33203125 203.57421875 C-36.64317937 204.26223507 -39.61143521 206.24662764 -42.32885742 209.67797852 C-43.69556326 211.72477015 -44.9525727 213.80859323 -46.1875 215.9375 C-46.65454346 216.72600342 -47.12158691 217.51450684 -47.6027832 218.3269043 C-49.09254715 220.87163739 -50.5515666 223.43153466 -52 226 C-52.71542969 227.26602051 -52.71542969 227.26602051 -53.4453125 228.55761719 C-72.62466027 262.89441398 -80.86259889 297.84243398 -80 337 C-81.16015625 337.01417969 -82.3203125 337.02835937 -83.515625 337.04296875 C-96.65436291 337.37140196 -107.22032766 339.3204716 -117.08984375 348.7421875 C-122.78547107 355.47444229 -125.13588034 362.83088093 -125.20532227 371.50073242 C-125.21522186 372.26194901 -125.22512146 373.02316559 -125.23532104 373.80744934 C-125.26690729 376.32342418 -125.29168209 378.83941789 -125.31640625 381.35546875 C-125.33697826 383.09996532 -125.3579748 384.84445693 -125.37937927 386.58894348 C-125.43457442 391.18053167 -125.48399499 395.77216465 -125.53222656 400.36383057 C-125.58246024 405.04923489 -125.63813657 409.73457417 -125.69335938 414.41992188 C-125.80090968 423.61322568 -125.90236162 432.80658596 -126 442 C-127.41821636 442.02308378 -128.83654344 442.03941653 -130.25488281 442.05297852 C-131.04469543 442.06281265 -131.83450806 442.07264679 -132.64825439 442.08277893 C-136.21966709 441.95706902 -139.37669781 441.05809349 -142.75 439.9375 C-143.43392822 439.71562012 -144.11785645 439.49374023 -144.82250977 439.26513672 C-155.38346644 435.67821168 -164.4962406 430.15929151 -173 423 C-173.59039062 422.55398438 -174.18078125 422.10796875 -174.7890625 421.6484375 C-190.35776387 409.49205424 -197.42917075 389.86532996 -201.6171875 371.2578125 C-203.53798863 354.91140286 -202.28861443 338.07410567 -199 322 C-198.74259033 320.73494629 -198.74259033 320.73494629 -198.47998047 319.44433594 C-196.22885576 308.69767982 -193.23899349 298.33022073 -189.66381836 287.9543457 C-186.28870055 278.10054292 -183.58274375 268.08681607 -181 258 C-180.79213867 257.18917969 -180.58427734 256.37835938 -180.37011719 255.54296875 C-177.41221233 243.86626412 -175.7959358 232.73388437 -175.75 220.6875 C-175.74605225 219.77613281 -175.74210449 218.86476562 -175.73803711 217.92578125 C-175.79361029 211.45408394 -176.56230614 205.8073077 -178.44140625 199.59375 C-179.06171938 196.71341489 -178.7710291 194.81859646 -178 192 C-163.54213882 193.3093912 -151.56856153 205.51492762 -142.58984375 216.078125 C-141.51547845 217.37686634 -140.44526372 218.67905067 -139.37890625 219.984375 C-138.60353516 220.92023438 -138.60353516 220.92023438 -137.8125 221.875 C-137.36519531 222.42929688 -136.91789062 222.98359375 -136.45703125 223.5546875 C-133.1986935 226.78681878 -130.11477623 227.29363539 -125.625 227.3125 C-119.91001366 227.19835247 -116.30420677 225.98999675 -111.9375 222.21875 C-109.72276258 219.68251844 -109.1628823 218.01650144 -108.4375 214.75 C-108.19644531 213.68394531 -107.95539063 212.61789063 -107.70703125 211.51953125 C-106.96642412 207.83286263 -106.29078709 204.13838356 -105.625 200.4375 C-103.94475153 191.14684613 -101.6085068 182.0706176 -99 173 C-98.79036621 172.26555664 -98.58073242 171.53111328 -98.36474609 170.77441406 C-91.56865859 147.49297496 -80.30011499 124.30011499 -63 107 C-62.83322718 103.58343976 -62.83322718 103.58343976 -63 100 C-63 95.26003483 -62.26580547 94.55109617 -59.125 91.1875 C-54.89087033 87.07358221 -54.89087033 87.07358221 -51.3515625 86.78125 C-49.63324924 87.04957519 -47.92010713 87.35373432 -46.21484375 87.6953125 C-43.82534134 88.24497267 -43.82534134 88.24497267 -41.3125 86.5625 C-37.65193777 82.507079 -37.65193777 82.507079 -34.07421875 78.37890625 C-32.14014913 76.16073601 -30.12775313 74.03897183 -28.09082031 71.91577148 C-11.1895863 54.11184457 -1.64830256 33.19538495 -0.4375 8.5625 C-0.37272461 7.32209961 -0.37272461 7.32209961 -0.30664062 6.05664062 C-0.20161967 4.03790451 -0.10041441 2.01897049 0 0 Z " fill="#FEE076" transform="translate(241,15)"/>
<path d="M0 0 C0.90346737 -0.00438225 1.80693474 -0.00876451 2.73777992 -0.01327956 C5.77772877 -0.02667834 8.81764863 -0.03284886 11.85762024 -0.03897095 C14.03224825 -0.04687106 16.20687494 -0.05513995 18.38150024 -0.06375122 C25.53409064 -0.08998174 32.68668692 -0.10527985 39.83930969 -0.11953735 C42.30041317 -0.1248966 44.76151661 -0.13027411 47.22262001 -0.13566971 C57.45927644 -0.15729989 67.69593129 -0.17603703 77.93260479 -0.1872921 C92.60887524 -0.20353388 107.28483613 -0.23671587 121.96100682 -0.29369295 C132.27703059 -0.33237884 142.59298353 -0.35192321 152.90907794 -0.35721266 C159.07198931 -0.36086792 165.23461848 -0.37290823 171.3974514 -0.4053154 C177.19642802 -0.43537188 182.99495131 -0.4417162 188.79398918 -0.42993164 C190.92083678 -0.42971071 193.04770527 -0.43803203 195.17448044 -0.45558548 C198.0819533 -0.47827363 200.98778188 -0.46998334 203.89526367 -0.45410156 C205.15292582 -0.47492469 205.15292582 -0.47492469 206.43599528 -0.49616849 C213.19341693 -0.40543979 217.94002184 1.94020176 222.79440802 6.63199389 C228.09521345 12.62696405 228.56135857 17.85374809 228.53974915 25.49887085 C228.54486008 26.43284698 228.54997101 27.36682312 228.55523682 28.32910156 C228.56912181 31.41269361 228.56817657 34.49606182 228.56587219 37.5796814 C228.56976026 39.728135 228.57409517 41.87658783 228.57885742 44.02503967 C228.58631769 48.52822358 228.58603013 53.03132909 228.58076477 57.53451538 C228.57497631 63.29454253 228.59188718 69.05424748 228.61510944 74.81422138 C228.62987058 79.25213994 228.63071513 83.68998139 228.62759972 88.12792015 C228.62811192 90.25091374 228.63333072 92.37391177 228.64341164 94.49688148 C228.65580203 97.47171316 228.64896811 100.44592349 228.6374054 103.42074585 C228.64504913 104.29115005 228.65269287 105.16155426 228.66056824 106.05833435 C228.60256619 112.8385368 227.16957434 118.05029757 223.57759094 123.90390015 C216.55985202 130.73197045 209.31236535 130.68502941 200.01509094 130.65390015 C197.69737185 130.64624248 195.3795133 130.65591503 193.06196594 130.68515015 C192.04457336 130.68063843 191.02718079 130.67612671 189.97895813 130.67147827 C186.54206219 131.28242703 185.39925517 132.44482321 183.26509094 135.15390015 C182.93509094 136.14390015 182.60509094 137.13390015 182.26509094 138.15390015 C177.31509094 138.15390015 172.36509094 138.15390015 167.26509094 138.15390015 C166.27509094 135.67890015 166.27509094 135.67890015 165.26509094 133.15390015 C161.59661975 130.70825269 159.84137962 130.90351997 155.46633911 130.90234375 C154.77113291 130.89937361 154.07592671 130.89640347 153.35965365 130.89334333 C151.02441997 130.88568997 148.68943682 130.89220282 146.35420227 130.89852905 C144.68203053 130.89577971 143.00986009 130.89210015 141.33769226 130.88755798 C137.73308359 130.87943788 134.12853699 130.8772796 130.52392006 130.87950516 C124.82119291 130.8823355 119.11858995 130.8679957 113.41589355 130.8505249 C97.19824601 130.80347442 80.98060642 130.77956354 64.76289368 130.77304077 C55.80867017 130.76928732 46.85458672 130.7512327 37.90042323 130.71794641 C32.23500256 130.69774769 26.56994351 130.69535505 20.90450156 130.70622659 C17.37281952 130.70883874 13.84134676 130.69480458 10.30971909 130.67614555 C8.67633897 130.67083493 7.04292004 130.67230102 5.40955544 130.68118095 C-11.70378033 130.76668622 -11.70378033 130.76668622 -18.23614788 124.77749062 C-23.80583592 118.70170281 -24.03556035 112.20735728 -24.04130554 104.42001343 C-24.04962906 103.45663055 -24.05795258 102.49324768 -24.06652832 101.50067139 C-24.09056668 98.32514369 -24.09939246 95.1498216 -24.10600281 91.97421265 C-24.11497299 89.75992777 -24.1240949 87.54564351 -24.13336182 85.33135986 C-24.14983703 80.69292733 -24.15754942 76.05456687 -24.16044617 71.41610718 C-24.16583196 65.48218775 -24.20352717 59.54894839 -24.24919033 53.61522102 C-24.27897778 49.04261824 -24.28617008 44.47017901 -24.28717232 39.89748764 C-24.29137031 37.71027381 -24.3037876 35.5230593 -24.32468987 33.33594131 C-24.3516416 30.27231458 -24.34676722 27.21026194 -24.33427429 24.14657593 C-24.34910858 23.24969055 -24.36394287 22.35280518 -24.37922668 21.42874146 C-24.30714698 15.19985085 -22.78598092 10.94005665 -18.73490906 6.15390015 C-12.7527477 0.87266595 -7.75373844 0.00454273 0 0 Z " fill="#F5F7F8" transform="translate(153.7349090576172,366.8460998535156)"/>
<path d="M0 0 C0.66 0 1.32 0 2 0 C2.02763357 1.35404497 2.04667422 2.70826555 2.0625 4.0625 C2.07410156 4.81660156 2.08570313 5.57070312 2.09765625 6.34765625 C2 9 2 9 1.51953125 12.26171875 C-0.85593991 29.35439469 0.78493874 48.40310844 11.12890625 62.7734375 C17.60734002 70.48263844 25.9258606 76.12306909 36 78 C50.66502943 79.03330831 60.37483723 75.08835019 72.1875 66.75 C81.61178593 57.53514264 86.64881321 45.82465523 89 33 C95.36619533 34.00142398 99.57178546 39.67608377 103.1953125 44.63623047 C118.70521933 67.4452946 122 92.80604444 122 120 C70.19 120 18.38 120 -35 120 C-35 76.22480402 -27.18233383 42.59717767 -4 6 C-3.63487305 5.40703125 -3.26974609 4.8140625 -2.89355469 4.203125 C-1.98421984 2.76565385 -0.99867796 1.37690068 0 0 Z " fill="#FC9637" transform="translate(211,232)"/>
<path d="M0 0 C3.875 0.875 3.875 0.875 5 2 C5.22783363 4.08129104 5.43096818 6.16528606 5.625 8.25 C9.18853823 38.79354052 27.27170245 61.72294911 48.5625 82.4375 C65.95254525 99.72731444 76.80922896 119.66733563 81 144 C81.309375 145.74990234 81.309375 145.74990234 81.625 147.53515625 C83.82554679 162.55694444 83.18016478 177.85645766 83 193 C82.67 192.01 82.34 191.02 82 190 C81.12214844 189.88914062 80.24429688 189.77828125 79.33984375 189.6640625 C69.70580923 187.74852347 61.99122029 181.51033724 56.34765625 173.71875 C51.0076774 165.46724234 49.25728359 157.27259744 48.03491211 147.64990234 C44.65663354 121.27416451 34.07294911 100.52745015 16 81 C14.51953978 79.33448226 13.04037449 77.66781258 11.5625 76 C8.51029144 72.59276024 5.35012216 69.36724706 2.0625 66.1875 C-3.59172305 60.59502353 -8.43634616 54.50921153 -13 48 C-13.4115332 47.48356934 -13.82306641 46.96713867 -14.24707031 46.43505859 C-16.87821568 42.73273982 -17.22608692 40.21965731 -16.515625 35.7265625 C-15.18492296 30.01547032 -13.12307866 24.72434788 -10.75 19.375 C-10.38003906 18.4984375 -10.01007813 17.621875 -9.62890625 16.71875 C-7.00810246 10.69000682 -3.8180761 5.34628303 0 0 Z " fill="#FCCE5A" transform="translate(338,110)"/>
<path d="M0 0 C28.8069887 -0.11679781 57.61394191 -0.20497096 86.42111969 -0.25906086 C89.08380651 -0.26419334 91.74649318 -0.26936669 94.40917969 -0.2746582 C95.07099768 -0.27596976 95.73281568 -0.27728131 96.41468877 -0.2786326 C106.45914162 -0.29902602 116.50347163 -0.33424098 126.54785156 -0.37719727 C138.20589404 -0.42703086 149.86382997 -0.45929078 161.52197599 -0.47044247 C167.69500639 -0.4769612 173.86773196 -0.4922834 180.04066467 -0.52865028 C185.85189593 -0.56260861 191.66269704 -0.57305305 197.4740181 -0.56553841 C199.60570743 -0.566913 201.73741127 -0.57684611 203.86901474 -0.59602737 C206.78319767 -0.62096255 209.69576379 -0.61490312 212.60998535 -0.60127258 C213.45047314 -0.61583679 214.29096093 -0.630401 215.15691805 -0.64540654 C221.92319012 -0.56005901 226.66857501 1.77993532 231.52923822 6.47812003 C236.83025365 12.47287285 237.29626735 17.69994302 237.2746582 25.3449707 C237.27976913 26.27894684 237.28488007 27.21292297 237.29014587 28.17520142 C237.30403087 31.25879347 237.30308563 34.34216167 237.30078125 37.42578125 C237.30466932 39.57423485 237.30900422 41.72268769 237.31376648 43.87113953 C237.32122675 48.37432344 237.32093918 52.87742895 237.31567383 57.38061523 C237.30988537 63.14064238 237.32679624 68.90034733 237.3500185 74.66032124 C237.36477964 79.0982398 237.36562419 83.53608124 237.36250877 87.97402 C237.36302098 90.0970136 237.36823978 92.22001162 237.37832069 94.34298134 C237.39071109 97.31781301 237.38387716 100.29202334 237.37231445 103.2668457 C237.37995819 104.13724991 237.38760193 105.00765411 237.39547729 105.9044342 C237.33747524 112.68463666 235.9044834 117.89639743 232.3125 123.75 C226.14261624 129.75313014 220.34902775 130.44475733 212.0546875 130.3515625 C210.88164062 130.31804687 209.70859375 130.28453125 208.5 130.25 C207.29601562 130.23195313 206.09203125 130.21390625 204.8515625 130.1953125 C201.90020395 130.14846554 198.95052964 130.08288005 196 130 C196.34498535 129.4536792 196.6899707 128.9073584 197.04541016 128.34448242 C197.49706543 127.62623291 197.9487207 126.9079834 198.4140625 126.16796875 C198.86217285 125.45664795 199.3102832 124.74532715 199.77197266 124.01245117 C201.7844898 120.7144037 203.13135786 118.34641802 202.75 114.4375 C202.1324006 112.05216874 202.1324006 112.05216874 200.97029114 110.36923218 C199.53402913 106.86220421 199.71363612 103.38611213 199.7253418 99.65478516 C199.72023087 98.81527817 199.71511993 97.97577118 199.70985413 97.11082458 C199.69595923 94.33683127 199.69691497 91.56308647 199.69921875 88.7890625 C199.69533145 86.85859078 199.69099671 84.92811991 199.68623352 82.99765015 C199.6787713 78.95087919 199.67906238 74.90419548 199.68432617 70.85742188 C199.6901174 65.67671352 199.67319816 60.49636307 199.6499815 55.31571388 C199.63523384 51.32823607 199.63437393 47.34084422 199.63749123 43.35334396 C199.63697842 41.4436103 199.63174835 39.53387177 199.62167931 37.62416458 C199.6093138 34.95054278 199.61610746 32.27761497 199.62768555 29.60400391 C199.62004181 28.81834549 199.61239807 28.03268707 199.60452271 27.22322083 C199.6509191 22.36485533 200.58382858 19.32267083 203 15 C202.84790304 12.56904753 202.84790304 12.56904753 201.875 10.375 C201.60429687 9.64023437 201.33359375 8.90546875 201.0546875 8.1484375 C199.82990297 5.65350605 198.99800909 3.97111278 197 2 C194.25612149 1.59562967 191.90733624 1.45288619 189.16035461 1.48101807 C188.35333152 1.47351681 187.54630844 1.46601556 186.7148301 1.458287 C184.00144136 1.43793217 181.28888205 1.44612755 178.57543945 1.45410156 C176.63412648 1.44537077 174.69282071 1.43488673 172.75152588 1.42277527 C167.47288937 1.39483415 162.19448672 1.39151237 156.91578698 1.39249516 C151.40239699 1.38937301 145.88911342 1.36376942 140.3757782 1.34051514 C129.93171079 1.29989797 119.4877059 1.279601 109.04357165 1.26654124 C97.15491751 1.25069054 85.26637006 1.21228309 73.3777777 1.17194796 C48.91855424 1.08947077 24.45933364 1.03542754 0 1 C0 0.67 0 0.34 0 0 Z " fill="#DED1E4" transform="translate(145,367)"/>
<path d="M0 0 C1.67542976 0.28604898 3.34385343 0.61781233 5 1 C6.21892268 5.36114551 7.43193216 9.72369566 8.6328125 14.08984375 C9.42729035 16.97024146 10.2514833 19.83095006 11.1171875 22.69140625 C18.22792658 46.91752894 20.50158703 75.44137369 14 100 C13.83902832 100.64018066 13.67805664 101.28036133 13.51220703 101.93994141 C9.17759375 118.87449686 1.42968391 132.76095541 -11 145 C-11.59296875 145.66257812 -12.1859375 146.32515625 -12.796875 147.0078125 C-24.36072443 159.7738443 -42.23647466 166.52236403 -59 168 C-59.27734375 164.7421875 -59.27734375 164.7421875 -59 161 C-57.12890625 158.8828125 -57.12890625 158.8828125 -54.5625 157.125 C-35.79000282 143.29680841 -24.71833621 123.31467224 -19 101 C-18.71854126 99.97664551 -18.71854126 99.97664551 -18.43139648 98.93261719 C-16.35784149 90.3283329 -16.65229597 81.54383709 -16.6875 72.75 C-16.68799347 71.90905792 -16.68848694 71.06811584 -16.68899536 70.20169067 C-16.71599024 55.188783 -17.95015758 40.71622991 -21 26 C-21.99 25.67 -22.98 25.34 -24 25 C-23.25234375 24.91363281 -22.5046875 24.82726562 -21.734375 24.73828125 C-20.74953125 24.59777344 -19.7646875 24.45726562 -18.75 24.3125 C-17.77546875 24.18488281 -16.8009375 24.05726563 -15.796875 23.92578125 C-11.52435051 22.51155178 -10.00395413 19.91353752 -7.95849609 16.01489258 C-6.86937576 13.77642292 -5.83291496 11.52056687 -4.8125 9.25 C-4.11246809 7.71272483 -3.41073553 6.17622257 -2.70703125 4.640625 C-2.25034058 3.62790527 -2.25034058 3.62790527 -1.78442383 2.59472656 C-1 1 -1 1 0 0 Z " fill="#FCCF5A" transform="translate(456,289)"/>
<path d="M0 0 C9.16964214 1.31452912 15.42160873 8.9534379 20.86328125 15.93359375 C31.78140116 31.60219362 35.19768099 49.60100901 35.125 68.4375 C35.13080078 69.93506836 35.13080078 69.93506836 35.13671875 71.46289062 C35.13037854 76.28462021 34.91451639 80.88073904 34.23144531 85.66040039 C33.6464013 91.5744054 33.80332826 97.56078706 33.8125 103.5 C33.81310425 104.21720215 33.8137085 104.9344043 33.81433105 105.67333984 C33.84812352 120.40685619 35.24419756 134.13871592 39.046875 148.40234375 C40.15381333 152.58058229 41.09451225 156.7743905 42 161 C28.08571105 157.83080187 16.51144504 149.51027268 8.63671875 137.70703125 C2.02073786 126.7646094 -0.36749554 116.31942223 -0.1875 103.625 C-0.18685547 102.7690625 -0.18621094 101.913125 -0.18554688 101.03125 C-0.15430788 96.38011142 0.07597588 91.79250853 0.49609375 87.16015625 C2.92402998 60.30223757 2.92402998 60.30223757 -3.18359375 34.44140625 C-4.29209012 31.12652476 -3.59700007 29.16603108 -2.6875 25.8125 C-0.63081243 17.24903538 -0.28859725 8.77733694 0 0 Z " fill="#FDCF5A" transform="translate(241,15)"/>
<path d="M0 0 C0.309375 -0.639375 0.61875 -1.27875 0.9375 -1.9375 C2 -4 2 -4 3 -5 C9.21430169 -5.58625488 9.21430169 -5.58625488 12.1971283 -3.3605957 C14.49234125 -0.35535145 14.51188984 1.32434965 14.53344727 5.08203125 C14.5492836 6.31010498 14.56511993 7.53817871 14.58143616 8.8034668 C14.57759482 10.13981507 14.57255585 11.47616036 14.56640625 12.8125 C14.57164276 14.18726014 14.57791934 15.56201669 14.58518982 16.93676758 C14.59558908 19.81511364 14.59103971 22.69296518 14.57641602 25.57128906 C14.55922059 29.25721477 14.58273194 32.9415827 14.61790562 36.62733459 C14.63988109 39.46531472 14.63843822 42.30292206 14.6301403 45.14096069 C14.62932098 46.49972239 14.63618107 47.85851151 14.65091133 49.2171936 C14.66835601 51.11738338 14.65049572 53.01779785 14.63110352 54.91796875 C14.63014175 55.99844482 14.62917999 57.0789209 14.62818909 58.19213867 C14 61 14 61 11.62071228 63.34887695 C8.66650215 65.2101131 7.41119789 65.6997329 4 65 C1.6875 63.125 1.6875 63.125 0 61 C0 60.34 0 59.68 0 59 C-0.74443359 59.39832031 -0.74443359 59.39832031 -1.50390625 59.8046875 C-10.95476832 64.71841844 -21.11498144 67.21694725 -31.6953125 64.2421875 C-33.90527771 63.29077875 -35.93514822 62.23204254 -38 61 C-39.010625 60.443125 -40.02125 59.88625 -41.0625 59.3125 C-49.71926064 52.49760333 -55.12920498 45.10795281 -56.48046875 34.078125 C-57.23469224 22.63644994 -54.6510927 13.56110962 -47.03515625 4.71875 C-33.51402928 -7.91881818 -15.92497313 -7.63526109 0 0 Z " fill="#030303" transform="translate(320,416)"/>
<path d="M0 0 C3.32448586 0.98503285 4.32576603 1.3712375 6.375 4 C6.77372742 5.87931824 6.77372742 5.87931824 6.80737305 8.01245117 C6.83706429 9.2133564 6.83706429 9.2133564 6.86735535 10.43852234 C6.87374527 11.29798965 6.88013519 12.15745697 6.88671875 13.04296875 C6.90466995 13.9265657 6.92262115 14.81016266 6.94111633 15.72053528 C6.99529996 18.5428083 7.02914061 21.36491144 7.0625 24.1875 C7.09566599 26.10093514 7.13015498 28.01434784 7.16601562 29.92773438 C7.25103099 34.61836715 7.31780362 39.30894884 7.375 44 C8.24185425 43.22076172 8.24185425 43.22076172 9.1262207 42.42578125 C13.51856718 38.49604987 17.9086979 34.61753038 22.5625 31 C23.52542969 30.236875 24.48835938 29.47375 25.48046875 28.6875 C28.79510262 26.75508187 30.60133631 26.52895362 34.375 27 C36.75 28.5625 36.75 28.5625 38.375 31 C38.78125 34.34375 38.78125 34.34375 38.375 38 C36.3203125 40.58984375 36.3203125 40.58984375 33.5 42.9375 C32.00339844 44.2059375 32.00339844 44.2059375 30.4765625 45.5 C29.45304687 46.325 28.42953125 47.15 27.375 48 C26.43398437 48.763125 25.49296875 49.52625 24.5234375 50.3125 C22.84819289 51.65664907 21.16429395 52.99014318 19.46875 54.30859375 C17.63862837 55.78703156 16.02020627 57.32457686 14.375 59 C15.12185059 59.74161377 15.86870117 60.48322754 16.63818359 61.24731445 C19.41009298 64.00111509 22.17868451 66.75823096 24.94628906 69.51635742 C26.14427995 70.70932155 27.34316709 71.90138634 28.54296875 73.0925293 C30.26799507 74.8054176 31.98976576 76.52152084 33.7109375 78.23828125 C34.51572037 79.03532219 34.51572037 79.03532219 35.33676147 79.84846497 C41.26576554 85.77657404 41.26576554 85.77657404 41.6875 90.5 C41.375 94 41.375 94 40.3125 95.875 C36.95570521 97.82410665 35.3404114 98.25177215 31.375 98 C27.64743411 95.3913022 24.54905362 92.24584158 21.375 89 C20.73175781 88.37996094 20.08851563 87.75992188 19.42578125 87.12109375 C15.14787992 82.97777808 11.24199318 78.52520478 7.375 74 C7.35373047 75.97033203 7.35373047 75.97033203 7.33203125 77.98046875 C7.28512012 79.71618051 7.23687279 81.45185652 7.1875 83.1875 C7.18169922 84.05181641 7.17589844 84.91613281 7.16992188 85.80664062 C7.01525301 90.29203773 6.80741923 92.42150301 4.05078125 96.109375 C1.375 98 1.375 98 -2.25 98.0625 C-6.07200147 96.85927731 -6.77899125 96.45522726 -8.625 93 C-8.92581896 90.11071587 -9.05549845 87.43659615 -9.04492188 84.54711914 C-9.05339142 83.69625229 -9.06186096 82.84538544 -9.07058716 81.96873474 C-9.09397732 79.15738967 -9.09497886 76.34659124 -9.09375 73.53515625 C-9.10085026 71.57986736 -9.10854906 69.62458055 -9.11682129 67.66929626 C-9.13027066 63.57121997 -9.13183276 59.47333634 -9.12597656 55.37524414 C-9.12007948 50.12470634 -9.15067032 44.8750929 -9.19109344 39.62473392 C-9.21694791 35.5866549 -9.21984991 31.54879912 -9.21620178 27.51064873 C-9.21789508 25.57495233 -9.22755778 23.63924585 -9.24534607 21.70363045 C-9.26749199 18.99588345 -9.25785688 16.29001617 -9.24023438 13.58227539 C-9.25349762 12.78367096 -9.26676086 11.98506653 -9.28042603 11.16226196 C-9.21951768 7.13276182 -8.78203147 5.20624217 -6.31311035 1.96360779 C-3.625 0 -3.625 0 0 0 Z " fill="#030303" transform="translate(159.625,383)"/>
<path d="M0 0 C2.53457195 1.59724269 3.87252296 2.88921987 5.35546875 5.484375 C5.28963613 9.23683451 5.1714568 11.54749983 2.66796875 14.421875 C-0.38151213 15.82298783 -2.31034584 15.88447725 -5.64453125 15.484375 C-6.49015625 14.989375 -7.33578125 14.494375 -8.20703125 13.984375 C-14.12336671 11.40270134 -20.99814569 11.19234862 -27.125 13.36328125 C-31.67447588 15.94956866 -35.19742437 19.34714558 -36.64453125 24.484375 C-37.34728327 30.28207915 -37.760218 36.24942413 -34.95703125 41.546875 C-31.47496883 45.97003537 -27.3018076 49.96383844 -21.53125 50.78515625 C-14.99915928 50.81996313 -10.16894878 49.58805627 -5.01953125 45.296875 C-2.64453125 43.484375 -2.64453125 43.484375 -0.14453125 42.921875 C3.6462917 43.77481016 5.10235918 45.36978236 7.35546875 48.484375 C7.70625445 52.27286054 7.26330424 54.36829889 4.83984375 57.34765625 C-2.02876248 63.86724794 -9.22424818 66.66764097 -18.64453125 66.984375 C-29.25043829 66.60559261 -35.81580631 63.14154103 -43.4453125 55.859375 C-46.40194296 52.66642416 -48.73764704 49.39348763 -50.64453125 45.484375 C-51.00933594 44.7521875 -51.37414062 44.02 -51.75 43.265625 C-54.22591822 35.56757358 -53.87049332 23.97244606 -50.73828125 16.4609375 C-45.8867847 7.69359016 -38.90070849 0.67000316 -29.3125 -2.6796875 C-19.0090128 -5.02787308 -9.59947068 -4.28997035 0 0 Z " fill="#040405" transform="translate(253.64453125,414.515625)"/>
<path d="M0 0 C3.72745261 0.71376752 4.68898975 1.51225412 6.9375 4.5625 C7.32687594 7.57490912 7.47460235 10.21973308 7.43920898 13.23071289 C7.44461197 14.10429947 7.45001495 14.97788605 7.45558167 15.87794495 C7.46808389 18.7640272 7.45156942 21.64911491 7.43359375 24.53515625 C7.43374869 26.5400752 7.43523682 28.54499445 7.43800354 30.5499115 C7.43938816 34.75061288 7.42681778 38.95097308 7.40405273 43.15161133 C7.37564973 48.54115761 7.3784096 53.93013769 7.39114285 59.31972599 C7.39809074 63.45894728 7.39032122 67.59803722 7.37788582 71.73724174 C7.37336395 73.72480198 7.37304091 75.71237628 7.37695122 77.69993782 C7.37985518 80.47481427 7.36339633 83.24890444 7.34155273 86.02368164 C7.34605438 86.8481781 7.35055603 87.67267456 7.35519409 88.52215576 C7.2817932 94.12185623 7.2817932 94.12185623 5.62811375 96.23831844 C2.85026239 98.41408422 0.39618613 98.5018213 -3.0625 98.5625 C-5.47531883 96.72113826 -6.71400913 95.25948174 -8.0625 92.5625 C-8.18173867 89.84324126 -8.24085768 87.14880637 -8.25537109 84.4284668 C-8.26354858 83.58764557 -8.27172607 82.74682434 -8.28015137 81.88052368 C-8.30501551 79.09092933 -8.32152363 76.30138588 -8.3359375 73.51171875 C-8.34126118 72.55996073 -8.34658485 71.60820271 -8.35206985 70.62760353 C-8.37880539 65.59036692 -8.39817932 60.55315514 -8.41259766 55.51586914 C-8.42924998 50.3101911 -8.47403147 45.10514561 -8.5249691 39.89970684 C-8.55860712 35.89941166 -8.57017128 31.89926727 -8.57582474 27.89884377 C-8.58254635 25.97986833 -8.59779201 24.06090313 -8.62171555 22.14206505 C-8.65329763 19.45575621 -8.65341465 16.77116216 -8.64599609 14.0847168 C-8.66240143 13.29232101 -8.67880676 12.49992523 -8.69570923 11.68351746 C-8.65008944 7.64710519 -8.2350313 5.78303125 -5.71743774 2.5650177 C-3.0625 0.5625 -3.0625 0.5625 0 0 Z " fill="#070808" transform="translate(353.0625,382.4375)"/>
<path d="M0 0 C4.58189936 2.79194292 7.5495625 6.61831409 9.5625 11.5625 C10.67683397 18.08563962 10.21469291 24.11585182 6.8359375 29.87890625 C3.87464481 33.79398953 0.10904684 36.68991146 -4.4375 38.5625 C-11.37092672 39.50346505 -17.09913112 39.20201442 -22.8203125 34.98828125 C-27.37024042 30.97687137 -30.01623683 26.77740313 -30.80859375 20.73046875 C-30.9655521 13.6858087 -30.37513038 8.80268127 -25.4375 3.5625 C-18.65692285 -2.97819824 -8.55233276 -3.54568882 0 0 Z " fill="#F4F6F7" transform="translate(309.4375,427.4375)"/>
<path d="M0 0 C-0.33 0.99 -0.66 1.98 -1 3 C-4.96 3 -8.92 3 -13 3 C-13 2.67 -13 2.34 -13 2 C-11.21089097 1.47044766 -9.41860852 0.9516063 -7.625 0.4375 C-6.62726563 0.14746094 -5.62953125 -0.14257812 -4.6015625 -0.44140625 C-2 -1 -2 -1 0 0 Z " fill="#E8DEEE" transform="translate(337,502)"/>
</svg>
